<svg width="637" height="740" viewBox="0 0 637 740" fill="none" xmlns="http://www.w3.org/2000/svg">
<g filter="url(#filter0_d_114_259)">
<rect x="171.225" y="90.8753" width="432.985" height="640.092" transform="rotate(-0.776485 171.225 90.8753)" stroke="#FF4842"/>
<rect x="178.255" y="82.0142" width="432.985" height="641.344" transform="rotate(-0.776485 178.255 82.0142)" stroke="#FF4842"/>
<path fill-rule="evenodd" clip-rule="evenodd" d="M204.828 89.6099C196.582 93.2575 191.785 91.6051 187.3 89.8475C191.353 88.5803 195.6 90.1391 198.692 87.2686C193.689 87.7404 189.427 85.0706 185.488 83.2045C186.97 82.7803 189.244 83.1536 191.026 81.8162C184.68 81.2961 181.546 75.2771 177.692 73.9151C182.403 69.2042 186.509 71.8762 191.62 62.1087C194.997 62.9721 197.423 62.9393 199.367 62.0037C197.015 61.7325 194.9 61.5591 193.548 59.9611C197.541 60.109 201.59 58.5388 205.755 59.7956C202.424 56.608 197.587 57.6839 194.654 54.996C208.637 35.7132 226.616 16.7803 248.107 8.60924C259.085 4.41953 276.463 4.5881 285.56 5.98014C289.085 11.9937 287.703 19.6902 284.745 26.7009C290.833 19.6478 289.584 14.1084 289.346 8.1513C291.452 13.3759 292.476 19.6255 290.762 26.0131C297.937 24.0975 304.346 29.2639 310.561 37.3625C325.778 57.1588 324.563 77.2787 334.962 93.8065C319.609 98.6617 297.218 86.5394 289.548 86.5423C302.12 90.2108 317.221 101.422 332.738 97.1705C334.002 103.821 336.845 111.46 338.109 118.11C333.116 119.289 326.835 123.617 321.602 124.396C303.715 127.062 300.32 107.51 286.137 100.53C278.653 96.8933 271.018 99.5223 267.258 116.545C266.224 121.105 266.687 126.453 266.908 131.198C263.92 130.127 262.145 120.453 250.55 113.842C246.922 111.77 243.465 110.806 240.123 106.71C240.768 102.357 235.782 98.2825 237.688 94.5188C243.496 89.9951 254.198 88.4357 263.728 87.0943C253.002 86.8356 243.551 88.2769 236.564 92.4125C235.261 82.934 233.473 72.2499 236.301 61.5031C245.288 48.9555 258.838 43.9228 272.068 38.3893C257.96 42.6214 246.282 47.2246 234.507 56.1732C233.053 58.6175 230.769 63.2955 229.797 66.6424C222.578 71.0842 214.546 78.9718 204.828 89.6099Z" fill="white"/>
<path fill-rule="evenodd" clip-rule="evenodd" d="M232.63 67.8162C223.152 72.9958 213.944 80.7983 207.015 89.2771C207.597 103.311 209.496 116.419 213.342 128.792C214.817 133.621 217.686 137.421 219.47 142.044C220.04 143.653 220.299 145.468 220.324 147.286C220.422 154.558 219.973 161.838 219.915 169.112C219.868 171.436 220.375 174.157 222.106 174.841C225.016 175.913 230.18 175.742 234.177 176.193C233.009 176.613 231.917 176.93 230.748 177.249C231.666 181.48 231.788 184.711 231.515 187.644C232.548 188.843 233.818 190.139 236.646 190.909C238.845 191.485 241.194 191.554 243.322 192.636C243.874 192.932 244.044 193.94 244.444 194.541C242.719 194.362 240.994 194.082 239.346 193.802C238.186 194.828 238.528 196.944 239.247 198.046C240.289 199.85 242.331 200.328 243.912 201.518C246.851 204.711 246.452 209.869 248.07 213.787C248.959 215.896 249.625 218.817 251.358 219.602C257.106 222.15 267.347 221.304 269.332 217.641C275.748 205.936 280.554 196.779 284.187 181.879C283.153 192.198 278.3 203.679 273.132 215.064C283.602 207.951 295.055 209.917 307.892 204.288C306.216 207.645 302.472 208.605 299.672 209.855C307.86 213.482 314.237 221.982 320.049 229.278C322.153 217.026 326.062 205.153 332.575 194.862C339.7 183.551 345.365 168.422 348.54 148.579C349.24 142.508 350.019 136.436 350.797 130.364C344.908 128.929 339.635 126.778 335.95 120.564C330.993 124.369 326.159 125.748 320.693 126.63C312.022 127.859 303.367 118.682 294.079 109.009C291.22 106.017 288.213 103.532 285.453 102.054C287.837 104.648 291.268 109.552 292.663 114.281C294.06 119.212 293.687 126.289 292.503 131.356C291.321 136.524 288.664 136.863 286.011 143.163C285.33 144.889 282.657 144.016 281.219 141.914C281.973 145.541 282.669 150.684 282.724 154.724C281.937 148.673 280.762 142.83 278.894 137.804C281.204 140.803 284.533 143.89 285.588 140.845C288.003 134.246 290.205 135.024 291.316 130.362C292.501 125.396 292.259 119.136 291.097 114.201C290.096 109.669 287.374 105.16 285.375 102.055C282.538 100.578 279.872 100.21 277.696 101.351C272.8 103.943 270.393 111.148 266.781 116.046C266.504 118.677 266.288 120.094 266.09 122.824C266.678 125.746 267.125 129.882 268.255 132.392C269.308 135.004 265.124 132.333 263.288 129.732C260.097 125.229 257.07 121.33 253.186 117.746C249.066 114.064 243.626 111.107 239.126 108.238C239.442 102.678 235.416 100.106 234.308 93.4532C233.019 84.9848 232.589 76.3027 232.63 67.8162V67.8162ZM235.262 140.719C233.897 143.97 232.661 145.199 230.885 146.941C230.113 147.759 233.514 150.34 233.935 152.557C234.852 156.686 233.596 162.158 234.429 165.885C233.877 165.589 233.144 163.478 233.204 162.164C233.317 158.929 234.133 155.585 233.386 152.463C232.886 150.247 229.257 148.074 229.947 147.054C231.943 144.199 232.538 141.867 235.262 140.719V140.719ZM236.002 137.577C235.146 137.993 234.765 138.705 233.749 138.82C230.39 139.27 227.408 138.704 224.838 139.648C224.592 138.843 224.499 137.733 224.638 136.418C224.956 136.818 225.049 137.928 225.519 137.921C229.897 137.559 233.038 138.325 236.002 137.577" fill="white"/>
<path fill-rule="evenodd" clip-rule="evenodd" d="M337.647 107.105C338.414 111.741 339.483 115.566 340.93 118.375C340.318 119.393 339.704 120.311 339.092 121.329C342.974 124.812 347.141 126.17 350.596 127.033C350.283 121.279 347.69 114.747 343.021 116.73C352.164 109.939 352.69 125.59 352.22 131.355C350.993 144.807 349.789 159.876 345.427 172.967C340.838 186.667 332.302 197.795 327.004 211.1C324.657 216.992 324.046 223.869 322.566 230.153C323.351 236.103 324.214 242.051 324.921 248.002C325.279 251.331 324.373 253.768 322.669 255.104C321.779 247.135 321.043 239.063 318.677 231.923C311.903 223.024 303.97 215.15 296.085 210.812C295.46 210.922 294.836 211.031 294.211 211.141C295.869 217.988 296.46 226.971 295.919 233.242C302.907 229.106 313.875 229.867 316.44 234.378C309.914 232.143 302.647 233.049 294.014 237.005C294.766 229.014 294.101 220.335 291.321 211.584C289.759 211.807 288.12 212.132 286.324 212.46C279.924 213.759 275.965 216.136 272.317 218.408C269.85 221.169 267.537 223.726 263.711 224.384C259.026 225.256 252.213 224.944 248.408 221.359C245.316 218.471 244.654 209.994 242.482 205.679C239.551 208.851 237.924 210.085 235.867 214.255C235.027 215.782 235.313 219.516 234.08 220.947C227.756 227.902 220.86 233.047 214.777 240.403C212.311 243.265 209.784 247.34 208.426 251.096C212.129 247.106 218.232 247.023 224.51 248.252C229.846 249.291 236.143 251.933 239.461 254.211C244.87 260.603 250.28 267.097 255.689 273.489C303.916 274.654 351.035 274.924 399.339 275.987C408.626 279.801 423.363 287.279 429.792 288.101C426.162 280.169 419.849 270.557 415.629 265.26C410.292 258.362 407.552 252.539 405.505 245.9C405.326 232.668 404.853 220.855 404.674 207.623C414.469 191.226 420.647 161.946 430.887 155.241C428.917 148.499 422.619 145.756 418.294 144.299C400.837 138.171 385.763 140.497 367.193 133.172C366.625 149.04 367.077 164.996 365.412 180.778C363.958 194.739 360.463 208.323 357.989 222.096C345.674 220.04 334.003 219.39 325.721 226.17C331.546 217.1 343.363 217.041 356.858 219.485C358.786 205.821 361.499 192.348 362.564 178.493C363.91 162.311 364.47 145.938 364.014 129.578C363.856 123.721 361.739 117.689 357.945 114.911C351.542 110.25 344.4 108.731 337.647 107.105Z" fill="#FF4842"/>
<path fill-rule="evenodd" clip-rule="evenodd" d="M240.537 252.783C230.571 250.796 219.046 249.336 212.026 251.149C209.376 251.892 209.082 253.31 206.595 254.657C194.55 260.983 186.255 266.854 177.42 273.237C176.334 273.959 176.044 275.68 175.913 277.601C179.604 278.46 186.439 280.388 194.494 285.734C208.552 295.04 216.383 306.955 226.242 318.338C209.58 301.592 192.647 282.223 172.811 279.664C168.011 283.567 163.132 287.371 157.528 289.67C168.107 290.638 179.349 294.324 190.571 302.355C209.539 315.938 216.668 327.964 224.73 339.574C227.905 337.106 231.092 335.446 234.282 334.09C235.615 334.274 236.88 335.166 238.512 334.336C250.789 327.805 260.852 325.345 271.383 322.778C269.8 321.486 268.202 319.083 266.62 317.791C261.922 317.653 257.176 319.737 252.617 318.284C245.073 316.063 238.503 310.595 230.8 308.174C240.663 308.243 251.377 319.21 264 315.099C260.811 310.798 257.314 306.805 254.511 302.095C250.91 296.284 251.706 291.525 251.958 286.976C252.822 293.025 254.935 298.755 258.912 303.449C265.036 310.64 271.496 319.543 277.926 326.225C300.867 350.058 323.397 366.624 345.364 393.602C346.957 395.601 348.169 398.413 348.597 401.135C333.48 382.954 318.093 367.908 300.516 352.993C309.443 364.893 315.421 378.653 324.492 389.642C340.725 409.324 341.596 421.637 354.767 429.035C365.492 435.052 377.406 436.305 388.804 439.989C379.892 423.441 371.059 406.892 362.147 390.344C358.961 386.245 355.083 383.065 352.586 377.846C350.653 373.831 345.736 369.049 342.54 364.243C341.102 362.04 338.586 349.648 338.954 342.167C338.451 339.75 337.902 339.656 336.852 337.246C324.181 337.822 294.328 323.78 283.71 308.366C282.674 306.966 281.639 305.667 281.845 303.543L282.104 299.599C284.082 289.571 308.665 284.389 322.01 287.34C339.436 291.144 358.254 305.235 361.897 314.176C362.003 310.437 364.561 308.584 365.986 309.777C372.921 313.32 377.998 312.544 381.409 315.932C386.723 321.113 392.645 324.973 399.498 328.214C404.225 330.473 407.009 333.769 414.567 342.86C424.994 344.133 434.296 343.3 446.236 340.713C448.186 340.283 451.801 341.345 453.968 345.357C457.565 345.106 468.346 343.646 471.219 341.991C466.461 337.409 457.288 318.844 453.753 317.881C447.232 316.05 437.248 301.234 434.023 294.307C418.905 287.542 409.225 283.632 394.531 273.527C350.448 272.104 306.289 270.783 262.13 269.462C255.01 263.901 247.735 258.343 240.537 252.783" fill="#FF4842"/>
<path fill-rule="evenodd" clip-rule="evenodd" d="M433.509 158.135C427.401 163.673 422.953 170.401 419.866 179.434C415.496 191.919 408.816 201.404 402.152 212.102C402.715 224.823 403.201 237.546 403.763 250.166C410.426 256.743 416.705 263.831 422.754 271.224C430.235 280.417 442.407 300.76 449.661 310.46C451.415 312.861 454.311 312.822 456.183 312.393C457.609 313.687 458.973 316.093 461.303 320.607C462.34 322.007 464.762 321.671 466.085 321.148C479.003 315.72 491.999 310.19 502.855 297.011C502.78 291.455 502.667 283.072 501.809 277.527C505.602 280.204 507.477 285.735 510.108 289.336C516.757 283.285 521.946 273.416 524.263 265.403C521.065 260.396 519.146 257.391 515.947 252.383C516.769 249.543 516.185 246.824 514.657 243.814C503.247 221.945 485.532 191.071 474.351 180.312C468.929 178.769 462.577 177.845 457.306 181.553C449.63 186.91 444.026 194.967 438.449 205.044C443.234 194.27 447.652 185.32 456.183 179.548C459.517 177.28 466.239 176.583 470.002 177.037C459.364 165.967 447.362 158.149 433.509 158.135" fill="#FF4842"/>
<path fill-rule="evenodd" clip-rule="evenodd" d="M522.017 278.769C518.644 283.967 515.192 289.166 510.249 293.981C508.645 291.174 506.729 288.372 504.736 285.671C505.734 290.002 506.027 294.342 505.773 298.689C492.103 312.209 478.275 319.771 464.41 324.707C471.397 337.847 473.891 337.005 482.661 343.149C490.307 341.328 498.454 341.925 506.396 344.646C511.429 346.396 516.682 352.891 521.641 354.946C515.986 353.507 511.059 348.018 506.191 346.871C498.027 345.062 491.281 343.942 483.084 345.467C473.716 347.21 464.333 347.843 454.874 348.678C460.504 365.675 460.5 382.646 455.02 399.895C472.181 407.239 489.984 415.685 507.733 420.193C520.376 423.355 531.429 418.862 540.119 413.288L486.552 364.614L510.512 365.401L543.249 384.354L537.385 344.327L514.013 300.295L536.396 317.569C531.078 300.569 530.213 294.519 522.017 278.769Z" fill="white"/>
<path fill-rule="evenodd" clip-rule="evenodd" d="M452.375 349.116C451.236 345.899 448.933 343.404 447.369 343.527C438.96 346.772 430.906 347.285 422.362 346.29C420.48 346.012 419.247 347.443 418.739 350.38C419.852 351.678 420.644 352.375 422.773 353.558C424.967 353.73 428.912 367.618 427.572 378.446C426.444 387.654 422.166 395.39 418.064 398.779C416.5 398.901 415.088 398.617 413.602 398.739C414.195 402.064 416.047 405.878 417.928 406.055C428.429 407.024 439.238 407.685 446.959 405.661C449.221 405.125 451.697 402.97 452.527 400.737C458.711 383.479 458.163 366.11 452.375 349.116Z" fill="#FF4842"/>
<path fill-rule="evenodd" clip-rule="evenodd" d="M422.492 355.886C424.901 360.399 426.673 369.871 425.827 376.752C424.908 384.038 422.043 392.058 417.485 396.464C405.028 395.521 392.194 395.594 379.339 394.152C374.088 393.617 367.144 389.468 364.047 386.176C367.941 378.951 372.32 372.931 373.364 363.32C371.38 372.843 366.996 378.56 362.779 384.981C358.822 381.802 357.397 380.609 355.223 376.093C353.532 372.58 349.258 369.102 345.677 364.705C344.086 362.808 341.378 353.55 340.584 346.994C340.33 345.584 340.539 343.661 341.477 343.548C342.939 347.468 345.213 353.599 346.878 355.193C350.842 358.877 354.834 364.682 358.103 369.184C355.3 364.474 351.926 358.054 348.113 353.863C346.445 352.067 342.014 342.732 339.51 337.008C341.231 336.984 343.491 336.247 345.134 336.224C347.604 339.424 348.253 341.132 350.717 343.927C353.103 346.724 360.192 355.821 362.979 359.319C360.082 353.499 354.185 345.699 350.671 340.493C347.472 335.485 344.988 331.175 341.903 323.034C339.063 315.597 335.519 308.169 341.172 309.507C345.333 310.461 350.92 318.467 354.235 326.302C361.159 334.795 364.269 338.996 369.868 347.911C374.681 350.775 380.933 355.843 385.824 358.706C394.231 361.118 400.234 353.662 399.999 347.806C399.067 342.565 394.493 340 389.141 337.85C384.096 335.191 378.973 332.533 373.928 329.874C369.987 327.806 367.76 325.209 364.794 319.996C363.189 317.088 364.289 311.618 366.408 312.095C366.565 312.092 372.557 315.345 377.984 317.292C381.13 318.462 383.373 322.27 387.635 324.839C392.135 327.708 394.964 328.578 399.537 331.042C403.32 333.011 410.478 341.4 414.962 348.916C416.964 352.223 419.65 354.106 422.492 355.886" fill="white"/>
<path fill-rule="evenodd" clip-rule="evenodd" d="M360.632 388.243C363.553 390.123 367.055 394.419 372.004 395.767C382.764 398.551 399.356 398.528 410.241 398.986C411.717 403.916 413.573 408.033 416.251 409.31C423.23 410.327 434.185 410.178 441.065 409.58C447.632 409.087 452.397 408.416 453.831 404.457C462.647 408.176 471.462 411.795 480.199 415.515C488.698 424.694 497.198 433.974 505.619 443.154L485.945 446.754L458.283 426.925C449.101 425.029 439.996 423.132 430.813 421.236C461.415 444.359 491.94 467.585 522.542 490.708C491.915 483.042 461.288 475.375 430.661 467.708C422.051 456.106 411.277 446.554 388.804 439.989C381.056 434.235 372.356 427.483 364.608 421.729C363.68 411.033 361.56 398.939 360.632 388.243Z" fill="#FF4842"/>
<path fill-rule="evenodd" clip-rule="evenodd" d="M216.983 333.819C198.251 308.817 182.051 297.318 161.268 294.165C157.457 295.934 153.461 301.342 148.753 300.497C154.439 304.259 158.312 307.035 160.543 309.934C163.176 313.637 167.191 315.401 171.9 316.347C168.468 317.202 165.048 318.965 159.642 312.775C147.959 299.599 138.351 301.042 126.641 303.221C121.333 304.202 115.448 308.929 110.141 310.011C100.229 312.065 88.4216 312.831 78.7021 311.751C80.2945 313.75 81.891 316.052 83.099 318.561C90.3596 323.008 101.275 325.689 109.501 326.285C100.671 327.314 89.4316 323.829 84.4772 322.078C85.2198 324.896 85.4187 328.025 84.5221 331.169C83.339 324.72 82.4661 318.064 77.3155 313.386C74.9378 311.196 70.9197 309.23 66.1218 307.476C69.2573 307.838 72.3928 308.199 75.229 309.575C73.3635 304.752 69.3138 300.462 64.8716 296.078C64.0793 301.14 64.2246 306.088 64.5278 311.135C66.5278 314.34 70.4787 317.115 73.7376 320.809C76.1208 323.403 76.2387 326.331 75.0154 328.47C70.7445 330.952 66.4749 333.535 62.204 336.018C65.6208 339.81 72.1635 343.258 76.8558 342.992C80.1396 342.745 81.7719 341.915 84.1265 336.63C84.8787 340.156 83.1132 342.705 80.167 344.765C82.7039 347.156 85.3781 348.13 88.6701 348.489C90.1596 348.671 91.2482 348.151 92.3191 346.318C93.2759 347.618 91.7493 350.468 91.0532 351.083C105.442 355.939 120.641 362.906 135.318 365.94C144.735 367.833 154.291 368.41 161.218 359.73C164.835 355.236 168.166 346.907 171.284 345.955C167.899 350.345 165.542 355.428 164.124 360.498C170.16 355.466 176.316 353.464 182.403 352.169C195.359 349.468 205.886 340.839 216.983 333.819" fill="white"/>
<path fill-rule="evenodd" clip-rule="evenodd" d="M427.697 462.697C418.385 457.065 408.965 449.212 399.057 445.709C385.846 441.14 375.363 441.484 355.923 433.464C361.583 441.065 366.815 445.944 373.862 452.011C375.683 453.502 374.244 457.057 375.503 457.545C382.744 460.579 387.285 460.719 394.876 460.616C389.725 461.696 384.272 463.589 375.157 460.883C373.428 460.402 372.83 462.43 372.447 463.042C374.691 466.951 378.581 471.04 382.781 474.822C390.625 481.889 399.663 484.696 407.851 488.222C400.626 486.4 393.498 485.992 381.721 477.463C376.029 473.297 371.965 467.897 369.712 463.382C368.471 464.207 366.924 465.541 366.335 468.277C365.75 471.315 366.171 473.532 365.436 477.078C364.93 480.115 361.36 482.386 361.57 486.323C362.055 487.428 363.417 489.733 365.774 490.408C405.77 502.191 430.969 525.085 455.677 552.228L499.287 559.214L444.704 516.413L464.517 517.255L515.152 545.967L442.495 480.478L481.493 493.588L427.697 462.697" fill="#FF4842"/>
<path fill-rule="evenodd" clip-rule="evenodd" d="M419.597 517.662C400.74 506.502 381.746 496.758 361.883 492.178C334.152 507.606 312.33 525.985 294.213 546.334C305.792 551.734 317.404 559.658 328.963 569.402C315.071 560.801 303.171 554.699 293.261 551.095C289.764 552.961 286.82 555.224 284.509 557.882C308.671 567.858 332.077 591.282 355.163 614.204C344.672 608.184 333.444 599.749 322.993 596.657C336.958 604.955 353.751 625.538 371.288 649.04L363.618 620.151L398.175 629.078L331.404 553.205L368.377 555.533L422.441 571.57C425.663 572.536 361.81 527.234 361.81 527.234L395.296 532.135L436.784 555.818C426.059 544.042 415.257 532.369 404.531 520.594C409.527 519.617 414.523 518.64 419.597 517.662" fill="#FF4842"/>
<path fill-rule="evenodd" clip-rule="evenodd" d="M286.304 569.071C296.858 573.979 307.447 581.412 318.061 590.764C311.736 591.86 305.333 592.958 299.009 594.053C286.576 606.445 274.142 618.737 261.786 631.027C258.054 644.413 277.17 640.012 301.584 668.573C282.381 660.752 263.231 651.01 244.132 650.865C241.116 653.532 239.341 666.891 242.067 671.703C248.498 684.244 251.975 692.481 258.408 705.123C249.136 690.903 241.95 680.393 232.102 669.818C232.768 655.464 236.016 646.833 239.182 637.899C241.515 630.999 242.603 624.62 246.439 618.91C258.56 600.865 272.99 585.718 286.304 569.071" fill="white"/>
<path fill-rule="evenodd" clip-rule="evenodd" d="M511.802 662.593L401.422 591.352L426.305 591.014L511.802 662.593Z" fill="white"/>
<path fill-rule="evenodd" clip-rule="evenodd" d="M449.224 630.507L431.622 619.532L384.679 661.183L449.224 630.507Z" fill="white"/>
<path fill-rule="evenodd" clip-rule="evenodd" d="M532.324 461.784L538.449 480.592L514.684 459.498L532.324 461.784Z" fill="white"/>
<path fill-rule="evenodd" clip-rule="evenodd" d="M549.667 517.112L580.801 562.15L560.934 551.509L548.967 534.8L493.747 502.716L541.91 522.268L549.667 517.112Z" fill="white"/>
<path fill-rule="evenodd" clip-rule="evenodd" d="M615.578 645.022L558.971 614.574L550.492 618.426L503.821 587.741L571.573 649.356L590.041 649.106L632.484 679.747L590.645 641.723L615.578 645.022Z" fill="white"/>
<path fill-rule="evenodd" clip-rule="evenodd" d="M309.414 680.387L330.057 684.755L326.61 690.257L364.121 726.521L309.414 680.387Z" fill="white"/>
<path fill-rule="evenodd" clip-rule="evenodd" d="M75.8033 328.863C75.7582 325.53 74.406 323.932 72.9742 322.234C70.1079 318.636 66.5524 316.158 63.3813 313.171C61.233 310.573 60.0772 306.144 60.0444 303.72C60.7719 305.427 61.5968 308.548 63.3403 310.141C62.4441 301.768 64.1138 292.148 62.9362 286.103C62.2595 282.374 59.2586 280.394 58.5063 282.627C56.1777 289.831 55.8149 297.716 54.0382 305.216C53.1471 308.763 53.7551 313.2 55.9404 318.525C53.0892 316.038 51.2718 308.991 51.3667 304.444C51.6512 296.56 55.0465 287.22 56.7121 277.297C57.6569 271.93 54.9224 266.512 52.837 268.561C49.59 277.293 44.9248 285.337 43.0959 294.757C41.8491 300.936 43.1463 304.252 42.9195 310.619C42.8563 311.732 42.244 312.75 41.7072 313.566C41.0595 306.2 40.0879 298.03 40.6578 293.88C41.9308 283.862 44.192 277.467 44.5247 267.36C45.0014 256.342 39.1876 254.703 38.151 259.061C35.6369 269.905 34.6386 277.091 32.5968 288.13C31.2127 295.726 32.5662 297.425 33.2425 312.67C33.3426 314.285 36.1265 317.581 37.1561 318.476C46.2699 326.839 57.2935 331.74 62.2039 336.018C66.9772 335.953 71.8288 335.887 76.6021 335.823C76.3358 333.503 76.0696 331.183 75.8033 328.863" fill="white"/>
<path fill-rule="evenodd" clip-rule="evenodd" d="M31.0437 289.061C28.5522 284.245 24.8033 279.043 20.5436 276.575C16.2537 271.885 11.8938 267.802 7.34976 267.46C4.217 267.3 2.77404 270.552 5.63897 274.049C10.0167 279.445 14.8584 284.431 18.6966 290.44C22.1339 295.748 23.9471 302.492 27.3844 307.799C28.5828 309.602 30.6256 310.18 32.207 311.371C31.8737 304.102 30.9705 300.982 30.6646 295.733C30.5562 293.512 30.9173 291.285 31.0437 289.061" fill="white"/>
<path fill-rule="evenodd" clip-rule="evenodd" d="M31.7324 282.181C30.1222 278.87 28.6672 275.455 26.9032 272.347C25.2189 269.339 21.9545 265.241 21.389 263.936C20.5791 261.926 23.215 260.072 27.0629 261.03C28.7117 261.412 32.263 263.586 34.5966 268.303C33.5737 273.671 32.6922 277.926 31.7324 282.181Z" fill="white"/>
<path fill-rule="evenodd" clip-rule="evenodd" d="M33.1259 194.374C26.6311 194.462 21.2169 187.666 21.1019 179.181C20.9883 170.798 26.2163 163.858 32.7111 163.77C39.2842 163.68 44.6983 170.477 44.8119 178.86C44.9269 187.344 39.699 194.285 33.1259 194.374Z" fill="#FF4842"/>
<path fill-rule="evenodd" clip-rule="evenodd" d="M554.587 406.526L545.397 409.883L518.409 387.822L554.587 406.526Z" fill="white"/>
<path fill-rule="evenodd" clip-rule="evenodd" d="M390.654 339.749C385.347 340.832 382.418 344.205 381.463 348.764C381.315 349.372 381.324 350.079 381.412 350.785L400.666 345.069L401.021 348.196L382.234 353.704C383.367 356.416 385.512 358.811 387.16 359.092C386.611 358.998 385.357 358.914 384.731 358.923C382.054 357.747 380.139 355.045 379.552 352.124L359.85 336.328L358.551 332.911L379.364 349.803C379.358 349.399 379.351 348.894 379.502 348.487C380.226 344.134 385.024 340.129 388.227 339.681C389.011 339.772 389.872 339.76 390.654 339.749" fill="white"/>
<path fill-rule="evenodd" clip-rule="evenodd" d="M362.07 315.386L348.662 319.305L347.619 317.4L361.494 313.272L361.897 314.176L362.07 315.386V315.386ZM366.206 326.038L359.51 322.795L352.632 323.494L351.988 322.19L360.822 321.464L363.298 319.309L363.271 323.148L366.206 326.038ZM342.061 328.891C337.612 329.759 328.522 328.973 321.608 326.946L340.013 322.15L339.043 319.84L317.754 325.584C317.44 325.487 317.202 325.288 316.888 325.191C302.943 318.41 286.04 307.021 282.5 299.896C282.512 300.805 282.523 301.614 282.535 302.523C285.669 308.541 302.502 320.537 316.836 327.111C324.869 330.841 336.463 331.593 343.107 330.998C342.784 330.295 342.384 329.594 342.061 328.891" fill="white"/>
</g>
<defs>
<filter id="filter0_d_114_259" x="0.0952148" y="5.09521" width="636.389" height="734.32" filterUnits="userSpaceOnUse" color-interpolation-filters="sRGB">
<feFlood flood-opacity="0" result="BackgroundImageFix"/>
<feColorMatrix in="SourceAlpha" type="matrix" values="0 0 0 0 0 0 0 0 0 0 0 0 0 0 0 0 0 0 127 0" result="hardAlpha"/>
<feOffset dy="4"/>
<feGaussianBlur stdDeviation="2"/>
<feComposite in2="hardAlpha" operator="out"/>
<feColorMatrix type="matrix" values="0 0 0 0 0 0 0 0 0 0 0 0 0 0 0 0 0 0 0.25 0"/>
<feBlend mode="normal" in2="BackgroundImageFix" result="effect1_dropShadow_114_259"/>
<feBlend mode="normal" in="SourceGraphic" in2="effect1_dropShadow_114_259" result="shape"/>
</filter>
</defs>
</svg>
