<svg width="637" height="740" viewBox="0 0 637 740" fill="none" xmlns="http://www.w3.org/2000/svg">
<g filter="url(#filter0_d_114_259)">
<rect x="171.676" y="90.5464" width="432.985" height="640.092" transform="rotate(-0.776485 171.676 90.5464)" stroke="#212B36"/>
<rect x="171.676" y="90.5464" width="432.985" height="640.092" transform="rotate(-0.776485 171.676 90.5464)" stroke="#212B36"/>
<rect x="171.676" y="90.5464" width="432.985" height="640.092" transform="rotate(-0.776485 171.676 90.5464)" stroke="#212B36"/>
<rect x="178.706" y="81.6853" width="432.985" height="641.344" transform="rotate(-0.776485 178.706 81.6853)" stroke="#212B36"/>
<path fill-rule="evenodd" clip-rule="evenodd" d="M205.279 89.281C197.032 92.9286 192.236 91.2762 187.751 89.5186C191.803 88.2514 196.051 89.8102 199.143 86.9397C194.14 87.4116 189.878 84.7417 185.939 82.8757C187.42 82.4515 189.695 82.8248 191.477 81.4873C185.13 80.9672 181.997 74.9483 178.143 73.5862C182.853 68.8753 186.959 71.5473 192.071 61.7798C195.448 62.6433 197.874 62.6104 199.818 61.6748C197.466 61.4036 195.35 61.2303 193.998 59.6322C197.992 59.7801 202.04 58.2099 206.205 59.4668C202.875 56.2792 198.037 57.355 195.105 54.6671C209.088 35.3843 227.067 16.4514 248.558 8.28038C259.536 4.09067 276.913 4.25924 286.011 5.65128C289.536 11.6649 288.153 19.3614 285.196 26.372C291.283 19.3189 290.034 13.7796 289.797 7.82244C291.903 13.0471 292.927 19.2966 291.213 25.6843C298.387 23.7686 304.797 28.935 311.011 37.0336C326.228 56.8299 325.014 76.9499 335.412 93.4777C320.06 98.3328 297.668 86.2105 289.999 86.2134C302.571 89.8819 317.671 101.093 333.188 96.8416C334.452 103.492 337.295 111.131 338.559 117.782C333.566 118.96 327.286 123.289 322.052 124.067C304.166 126.734 300.77 107.181 286.588 100.201C279.103 96.5644 271.469 99.1934 267.708 116.216C266.674 120.776 267.138 126.124 267.359 130.869C264.37 129.799 262.596 120.124 251.001 113.513C247.373 111.441 243.916 110.477 240.573 106.381C241.219 102.028 236.233 97.9536 238.139 94.1899C243.947 89.6662 254.648 88.1069 264.179 86.7654C253.453 86.5067 244.002 87.9481 237.014 92.0837C235.712 82.6052 233.924 71.921 236.752 61.1743C245.739 48.6267 259.289 43.594 272.519 38.0604C258.41 42.2926 246.733 46.8958 234.958 55.8444C233.504 58.2886 231.219 62.9666 230.247 66.3136C223.029 70.7554 214.996 78.643 205.279 89.281Z" fill="white"/>
<path fill-rule="evenodd" clip-rule="evenodd" d="M233.081 67.4873C223.603 72.6669 214.395 80.4695 207.466 88.9483C208.047 102.983 209.947 116.09 213.793 128.463C215.267 133.293 218.136 137.093 219.921 141.715C220.49 143.324 220.75 145.139 220.774 146.957C220.873 154.229 220.424 161.509 220.366 168.783C220.319 171.108 220.826 173.828 222.557 174.512C225.467 175.584 230.63 175.413 234.628 175.864C233.46 176.284 232.368 176.602 231.198 176.92C232.117 181.151 232.239 184.382 231.965 187.315C232.999 188.514 234.269 189.81 237.097 190.58C239.296 191.156 241.645 191.225 243.773 192.308C244.325 192.603 244.495 193.611 244.894 194.212C243.17 194.033 241.445 193.753 239.797 193.473C238.637 194.499 238.979 196.616 239.698 197.717C240.74 199.521 242.781 199.999 244.363 201.19C247.302 204.382 246.902 209.54 248.521 213.458C249.41 215.567 250.076 218.488 251.808 219.273C257.556 221.821 267.798 220.976 269.783 217.312C276.198 205.607 281.005 196.45 284.638 181.55C283.604 191.869 278.751 203.35 273.583 214.735C284.052 207.622 295.506 209.589 308.343 203.959C306.667 207.316 302.923 208.276 300.122 209.526C308.311 213.153 314.687 221.653 320.5 228.949C322.603 216.697 326.512 204.824 333.025 194.533C340.151 183.223 345.815 168.093 348.99 148.25C349.691 142.179 350.469 136.107 351.248 130.035C345.358 128.6 340.086 126.449 336.401 120.235C331.444 124.04 326.61 125.419 321.143 126.301C312.473 127.53 303.817 118.353 294.529 108.68C291.671 105.688 288.663 103.203 285.904 101.725C288.287 104.32 291.719 109.223 293.114 113.952C294.511 118.884 294.137 125.96 292.954 131.027C291.772 136.196 289.115 136.535 286.461 142.834C285.78 144.561 283.107 143.688 281.67 141.586C282.424 145.212 283.12 150.355 283.174 154.395C282.388 148.344 281.213 142.501 279.345 137.475C281.655 140.475 284.984 143.561 286.039 140.516C288.454 133.917 290.656 134.695 291.766 130.033C292.951 125.067 292.71 118.807 291.547 113.873C290.547 109.34 287.825 104.831 285.826 101.726C282.988 100.249 280.322 99.8815 278.146 101.022C273.251 103.614 270.844 110.819 267.232 115.717C266.954 118.348 266.739 119.765 266.541 122.495C267.129 125.417 267.576 129.553 268.706 132.063C269.758 134.675 265.574 132.005 263.739 129.403C260.547 124.9 257.52 121.001 253.637 117.417C249.517 113.735 244.077 110.778 239.577 107.909C239.893 102.349 235.866 99.7769 234.759 93.1244C233.47 84.6559 233.039 75.9738 233.081 67.4873ZM235.712 140.39C234.348 143.641 233.112 144.87 231.336 146.612C230.564 147.43 233.964 150.011 234.386 152.228C235.303 156.357 234.046 161.83 234.879 165.556C234.328 165.26 233.595 163.149 233.655 161.835C233.768 158.601 234.583 155.256 233.837 152.134C233.337 149.918 229.707 147.745 230.398 146.726C232.394 143.87 232.989 141.538 235.712 140.39ZM236.452 137.248C235.597 137.664 235.215 138.376 234.2 138.491C230.84 138.941 227.859 138.375 225.289 139.319C225.043 138.514 224.95 137.404 225.088 136.089C225.407 136.489 225.5 137.599 225.97 137.592C230.347 137.23 233.488 137.996 236.452 137.248Z" fill="white"/>
<path fill-rule="evenodd" clip-rule="evenodd" d="M338.098 106.776C338.865 111.412 339.934 115.237 341.381 118.046C340.769 119.064 340.155 119.982 339.543 121C343.425 124.484 347.591 125.842 351.047 126.704C350.734 120.95 348.141 114.418 343.472 116.401C352.615 109.61 353.14 125.261 352.67 131.026C351.444 144.479 350.239 159.547 345.878 172.638C341.289 186.339 332.752 197.466 327.454 210.772C325.108 216.663 324.497 223.541 323.017 229.824C323.802 235.774 324.665 241.722 325.372 247.673C325.73 251.002 324.824 253.439 323.12 254.775C322.229 246.806 321.494 238.735 319.127 231.594C312.354 222.695 304.421 214.822 296.536 210.483C295.911 210.593 295.286 210.702 294.662 210.812C296.32 217.659 296.911 226.642 296.37 232.913C303.358 228.777 314.325 229.538 316.891 234.049C310.365 231.814 303.098 232.721 294.464 236.676C295.217 228.685 294.552 220.006 291.772 211.255C290.21 211.478 288.57 211.804 286.775 212.131C280.375 213.43 276.415 215.807 272.768 218.079C270.301 220.84 267.987 223.397 264.161 224.055C259.477 224.927 252.664 224.615 248.859 221.03C245.767 218.142 245.104 209.665 242.933 205.351C240.002 208.522 238.375 209.756 236.318 213.926C235.478 215.453 235.763 219.187 234.53 220.618C228.207 227.573 221.311 232.718 215.228 240.074C212.762 242.936 210.235 247.011 208.877 250.767C212.579 246.777 218.683 246.695 224.961 247.923C230.297 248.962 236.594 251.604 239.912 253.882C245.321 260.275 250.731 266.768 256.139 273.16C304.366 274.325 351.486 274.595 399.79 275.658C409.077 279.472 423.814 286.95 430.242 287.772C426.613 279.841 420.3 270.228 416.08 264.931C410.743 258.033 408.003 252.21 405.956 245.571C405.777 232.339 405.304 220.526 405.124 207.294C414.92 190.897 421.097 161.618 431.338 154.912C429.368 148.17 423.069 145.427 418.745 143.97C401.287 137.843 386.214 140.168 367.644 132.843C367.076 148.712 367.527 164.667 365.863 180.449C364.408 194.41 360.914 207.995 358.44 221.767C346.124 219.712 334.454 219.062 326.171 225.841C331.997 216.771 343.814 216.712 357.309 219.156C359.237 205.492 361.95 192.019 363.014 178.164C364.36 161.982 364.921 145.609 364.464 129.25C364.307 123.392 362.19 117.36 358.396 114.583C351.993 109.921 344.85 108.402 338.098 106.776Z" fill="#FF4842"/>
<path fill-rule="evenodd" clip-rule="evenodd" d="M240.988 252.454C231.021 250.468 219.496 249.007 212.477 250.82C209.826 251.563 209.532 252.981 207.046 254.328C195.001 260.654 186.706 266.525 177.87 272.908C176.784 273.63 176.495 275.351 176.364 277.272C180.054 278.131 186.889 280.059 194.945 285.405C209.002 294.711 216.834 306.626 226.693 318.009C210.03 301.263 193.097 281.894 173.262 279.335C168.462 283.239 163.583 287.043 157.979 289.341C168.558 290.309 179.8 293.995 191.022 302.026C209.99 315.609 217.118 327.635 225.181 339.245C228.356 336.777 231.542 335.118 234.733 333.761C236.066 333.945 237.33 334.837 238.963 334.007C251.24 327.476 261.303 325.016 271.834 322.449C270.251 321.157 268.653 318.754 267.07 317.462C262.372 317.324 257.627 319.409 253.067 317.955C245.524 315.734 238.954 310.267 231.251 307.845C241.113 307.914 251.828 318.881 264.451 314.77C261.262 310.469 257.764 306.476 254.961 301.766C251.361 295.955 252.157 291.196 252.408 286.647C253.273 292.697 255.386 298.426 259.362 303.12C265.486 310.311 271.946 319.215 278.376 325.896C301.318 349.729 323.848 366.295 345.815 393.273C347.407 395.272 348.619 398.084 349.048 400.806C333.931 382.625 318.544 367.579 300.967 352.664C309.894 364.565 315.872 378.324 324.943 389.313C341.176 408.995 342.047 421.308 355.217 428.706C365.943 434.723 377.856 435.976 389.255 439.66C380.343 423.112 371.509 406.563 362.598 390.015C359.412 385.916 355.534 382.736 353.037 377.517C351.104 373.502 346.187 368.72 342.991 363.914C341.552 361.711 339.036 349.319 339.405 341.839C338.902 339.421 338.353 339.327 337.303 336.917C324.632 337.493 294.779 323.451 284.161 308.037C283.124 306.637 282.089 305.338 282.295 303.214L282.555 299.27C284.532 289.242 309.115 284.06 322.461 287.011C339.887 290.816 358.705 304.906 362.348 313.847C362.454 310.108 365.012 308.255 366.437 309.448C373.372 312.991 378.449 312.215 381.86 315.603C387.174 320.785 393.096 324.644 399.949 327.885C404.676 330.144 407.46 333.441 415.018 342.531C425.444 343.804 434.747 342.971 446.686 340.385C448.637 339.954 452.252 341.016 454.419 345.028C458.016 344.777 468.797 343.318 471.67 341.662C466.912 337.08 457.738 318.515 454.203 317.553C447.682 315.722 437.699 300.905 434.474 293.979C419.355 287.213 409.676 283.303 394.982 273.198C350.899 271.775 306.74 270.454 262.58 269.133C255.461 263.572 248.185 258.014 240.988 252.454Z" fill="#FF4842"/>
<path fill-rule="evenodd" clip-rule="evenodd" d="M433.959 157.806C427.852 163.344 423.403 170.072 420.317 179.105C415.947 191.59 409.266 201.076 402.602 211.773C403.166 224.494 403.651 237.217 404.214 249.837C410.877 256.414 417.156 263.502 423.205 270.895C430.686 280.088 442.858 300.431 450.112 310.132C451.866 312.532 454.761 312.493 456.634 312.064C458.06 313.358 459.423 315.764 461.754 320.278C462.791 321.678 465.212 321.343 466.536 320.82C479.454 315.391 492.449 309.861 503.306 296.682C503.231 291.127 503.117 282.743 502.259 277.199C506.052 279.875 507.927 285.406 510.559 289.007C517.208 282.956 522.396 273.087 524.714 265.075C521.515 260.067 519.596 257.062 516.398 252.054C517.22 249.215 516.635 246.495 515.108 243.485C503.698 221.617 485.983 190.742 474.801 179.983C469.38 178.44 463.028 177.516 457.756 181.224C450.081 186.581 444.477 194.638 438.9 204.715C443.684 193.942 448.103 184.992 456.633 179.219C459.968 176.951 466.689 176.254 470.452 176.708C459.815 165.639 447.813 157.82 433.959 157.806Z" fill="#FF4842"/>
<path fill-rule="evenodd" clip-rule="evenodd" d="M522.468 278.441C519.094 283.639 515.643 288.837 510.699 293.653C509.096 290.846 507.18 288.043 505.186 285.342C506.184 289.673 506.478 294.013 506.224 298.36C492.554 311.881 478.725 319.443 464.861 324.379C471.848 337.518 474.341 336.676 483.112 342.82C490.757 340.999 498.905 341.596 506.847 344.317C511.879 346.067 517.133 352.563 522.091 354.617C516.437 353.178 511.51 347.689 506.642 346.542C498.478 344.734 491.732 343.613 483.535 345.138C474.167 346.882 464.783 347.514 455.325 348.349C460.955 365.346 460.95 382.318 455.471 399.566C472.632 406.91 490.434 415.357 508.183 419.864C520.827 423.027 531.88 418.533 540.57 412.96L487.003 364.286L510.963 365.072L543.7 384.025L537.835 343.998L514.463 299.966L536.846 317.241C531.529 300.24 530.664 294.19 522.468 278.441Z" fill="white"/>
<path fill-rule="evenodd" clip-rule="evenodd" d="M452.826 348.787C451.687 345.57 449.383 343.075 447.82 343.198C439.411 346.443 431.357 346.957 422.812 345.961C420.93 345.684 419.697 347.115 419.189 350.051C420.303 351.349 421.095 352.046 423.224 353.229C425.418 353.402 429.363 367.289 428.022 378.117C426.895 387.325 422.617 395.061 418.515 398.45C416.951 398.572 415.538 398.289 414.053 398.41C414.646 401.735 416.498 405.549 418.379 405.726C428.879 406.695 439.689 407.356 447.41 405.332C449.672 404.796 452.147 402.641 452.978 400.408C459.162 383.15 458.613 365.782 452.826 348.787Z" fill="#FF4842"/>
<path fill-rule="evenodd" clip-rule="evenodd" d="M422.943 355.557C425.352 360.07 427.124 369.542 426.278 376.423C425.359 383.709 422.494 391.729 417.936 396.135C405.479 395.192 392.644 395.265 379.789 393.823C374.538 393.288 367.595 389.139 364.498 385.847C368.391 378.622 372.771 372.602 373.815 362.991C371.831 372.514 367.447 378.231 363.229 384.652C359.273 381.473 357.848 380.28 355.674 375.764C353.983 372.251 349.709 368.773 346.128 364.377C344.537 362.479 341.828 353.221 341.035 346.666C340.781 345.255 340.99 343.332 341.928 343.219C343.389 347.139 345.664 353.27 347.329 354.864C351.292 358.548 355.284 364.353 358.554 368.855C355.751 364.145 352.377 357.725 348.563 353.534C346.895 351.738 342.464 342.403 339.961 336.679C341.682 336.656 343.942 335.918 345.585 335.895C348.055 339.095 348.704 340.803 351.168 343.599C353.554 346.395 360.643 355.492 363.429 358.99C360.533 353.17 354.636 345.37 351.121 340.164C347.923 335.157 345.438 330.846 342.354 322.705C339.514 315.268 335.97 307.84 341.623 309.178C345.784 310.132 351.371 318.138 354.686 325.973C361.61 334.466 364.719 338.667 370.319 347.582C375.132 350.446 381.383 355.514 386.275 358.377C394.682 360.789 400.685 353.333 400.449 347.477C399.517 342.236 394.943 339.672 389.592 337.522C384.547 334.862 379.424 332.204 374.379 329.545C370.438 327.477 368.211 324.88 365.244 319.667C363.64 316.759 364.74 311.289 366.859 311.766C367.016 311.764 373.008 315.016 378.435 316.963C381.581 318.133 383.824 321.941 388.085 324.51C392.585 327.379 395.415 328.25 399.987 330.713C403.771 332.682 410.928 341.071 415.413 348.587C417.414 351.894 420.101 353.777 422.943 355.557Z" fill="white"/>
<path fill-rule="evenodd" clip-rule="evenodd" d="M361.083 387.914C364.004 389.794 367.506 394.09 372.455 395.438C383.215 398.222 399.807 398.199 410.692 398.657C412.167 403.587 414.023 407.704 416.702 408.981C423.681 409.998 434.636 409.849 441.515 409.251C448.083 408.758 452.848 408.087 454.281 404.128C463.098 407.847 471.912 411.466 480.65 415.186C489.149 424.365 497.649 433.645 506.07 442.825L486.396 446.425L458.734 426.596C449.551 424.7 440.447 422.803 431.264 420.907C461.866 444.03 492.391 467.256 522.993 490.379C492.366 482.713 461.739 475.046 431.111 467.379C422.501 455.777 411.728 446.225 389.255 439.66C381.507 433.906 372.806 427.154 365.059 421.4C364.131 410.704 362.01 398.61 361.083 387.914Z" fill="#FF4842"/>
<path fill-rule="evenodd" clip-rule="evenodd" d="M217.433 333.49C198.702 308.488 182.502 296.989 161.719 293.836C157.908 295.605 153.911 301.013 149.204 300.168C154.89 303.93 158.763 306.706 160.993 309.605C163.626 313.308 167.642 315.072 172.351 316.018C168.918 316.873 165.499 318.636 160.093 312.446C148.409 299.27 138.802 300.713 127.092 302.892C121.783 303.873 115.899 308.6 110.592 309.682C100.68 311.736 88.8723 312.502 79.1528 311.422C80.7452 313.421 82.3417 315.723 83.5497 318.232C90.8103 322.679 101.725 325.36 109.951 325.956C101.121 326.985 89.8823 323.5 84.9279 321.749C85.6704 324.567 85.8694 327.696 84.9728 330.84C83.7897 324.391 82.9168 317.735 77.7662 313.057C75.3885 310.867 71.3704 308.901 66.5725 307.147C69.708 307.509 72.8435 307.871 75.6797 309.246C73.8142 304.423 69.7645 300.133 65.3222 295.749C64.5299 300.811 64.6753 305.759 64.9785 310.806C66.9785 314.011 70.9294 316.786 74.1883 320.48C76.5714 323.074 76.6894 326.003 75.4661 328.141C71.1952 330.623 66.9256 333.206 62.6547 335.689C66.0715 339.481 72.6142 342.929 77.3065 342.663C80.5903 342.416 82.2226 341.586 84.5772 336.301C85.3294 339.827 83.5639 342.376 80.6177 344.436C83.1546 346.827 85.8288 347.801 89.1208 348.16C90.6103 348.342 91.6989 347.822 92.7698 345.989C93.7266 347.289 92.1999 350.139 91.5039 350.754C105.892 355.611 121.092 362.577 135.768 365.611C145.186 367.504 154.742 368.081 161.668 359.401C165.286 354.907 168.617 346.578 171.734 345.626C168.35 350.016 165.993 355.099 164.575 360.169C170.611 355.137 176.767 353.135 182.854 351.84C195.809 349.139 206.336 340.51 217.433 333.49Z" fill="white"/>
<path fill-rule="evenodd" clip-rule="evenodd" d="M428.148 462.368C418.836 456.736 409.416 448.883 399.507 445.38C386.297 440.811 375.814 441.155 356.374 433.135C362.034 440.736 367.265 445.615 374.313 451.682C376.133 453.173 374.695 456.728 375.953 457.216C383.195 460.25 387.736 460.39 395.326 460.287C390.176 461.367 384.723 463.26 375.607 460.555C373.879 460.073 373.28 462.102 372.897 462.713C375.142 466.622 379.032 470.712 383.231 474.493C391.075 481.56 400.114 484.367 408.301 487.893C401.076 486.071 393.949 485.663 382.171 477.134C376.48 472.969 372.415 467.568 370.163 463.053C368.922 463.878 367.374 465.212 366.785 467.948C366.2 470.986 366.622 473.203 365.887 476.749C365.38 479.787 361.811 482.057 362.021 485.994C362.505 487.099 363.867 489.404 366.224 490.079C406.221 501.862 431.42 524.756 456.128 551.899L499.738 558.885L445.155 516.084L464.967 516.927L515.603 545.638L442.946 480.15L481.943 493.259L428.148 462.368Z" fill="#FF4842"/>
<path fill-rule="evenodd" clip-rule="evenodd" d="M420.048 517.333C401.191 506.173 382.197 496.429 362.334 491.849C334.602 507.278 312.781 525.656 294.664 546.006C306.242 551.405 317.855 559.329 329.413 569.073C315.522 560.472 303.621 554.37 293.711 550.767C290.215 552.632 287.271 554.895 284.959 557.553C309.122 567.53 332.527 590.953 355.613 613.875C345.122 607.855 333.894 599.42 323.443 596.329C337.409 604.626 354.202 625.209 371.738 648.711L364.068 619.822L398.626 628.749L331.855 552.876L368.828 555.204L422.891 571.241C426.113 572.207 362.261 526.905 362.261 526.905L395.747 531.806L437.235 555.489C426.51 543.714 415.707 532.04 404.982 520.265C409.978 519.288 414.974 518.311 420.048 517.333Z" fill="#FF4842"/>
<path fill-rule="evenodd" clip-rule="evenodd" d="M286.755 568.742C297.309 573.65 307.897 581.083 318.512 590.435C312.187 591.531 305.784 592.629 299.459 593.724C287.027 606.117 274.593 618.408 262.237 630.698C258.505 644.084 277.62 639.683 302.035 668.245C282.832 660.423 263.682 650.681 244.583 650.536C241.567 653.204 239.791 666.563 242.517 671.375C248.949 683.915 252.426 692.152 258.858 704.794C249.587 690.574 242.4 680.064 232.552 669.489C233.219 655.135 236.467 646.505 239.633 637.57C241.966 630.67 243.053 624.291 246.889 618.581C259.01 600.536 273.441 585.389 286.755 568.742Z" fill="white"/>
<path fill-rule="evenodd" clip-rule="evenodd" d="M512.252 662.264L401.872 591.023L426.756 590.686L512.252 662.264Z" fill="white"/>
<path fill-rule="evenodd" clip-rule="evenodd" d="M449.674 630.179L432.072 619.203L385.13 660.854L449.674 630.179Z" fill="white"/>
<path fill-rule="evenodd" clip-rule="evenodd" d="M532.775 461.455L538.9 480.263L515.134 459.169L532.775 461.455Z" fill="white"/>
<path fill-rule="evenodd" clip-rule="evenodd" d="M550.118 516.783L581.251 561.821L561.384 551.18L549.418 534.471L494.197 502.387L542.361 521.939L550.118 516.783Z" fill="white"/>
<path fill-rule="evenodd" clip-rule="evenodd" d="M616.028 644.694L559.421 614.245L550.943 618.098L504.272 587.413L572.024 649.027L590.491 648.777L632.935 679.418L591.095 641.395L616.028 644.694Z" fill="white"/>
<path fill-rule="evenodd" clip-rule="evenodd" d="M309.865 680.059L330.508 684.426L327.06 689.928L364.571 726.192L309.865 680.059Z" fill="white"/>
<path fill-rule="evenodd" clip-rule="evenodd" d="M76.254 328.534C76.2089 325.201 74.8567 323.603 73.4249 321.905C70.5586 318.307 67.0031 315.83 63.832 312.842C61.6837 310.244 60.5279 305.815 60.4951 303.391C61.2226 305.099 62.0475 308.219 63.7909 309.812C62.8948 301.439 64.5645 291.819 63.3869 285.774C62.7102 282.045 59.7093 280.065 58.9569 282.298C56.6284 289.502 56.2656 297.387 54.4889 304.887C53.5978 308.435 54.2058 312.871 56.3911 318.196C53.5399 315.709 51.7225 308.662 51.8174 304.115C52.1019 296.231 55.4972 286.891 57.1628 276.968C58.1075 271.601 55.3731 266.183 53.2877 268.232C50.0406 276.964 45.3755 285.008 43.5465 294.428C42.2998 300.607 43.597 303.923 43.3702 310.291C43.307 311.403 42.6947 312.421 42.1579 313.237C41.5102 305.871 40.5386 297.701 41.1085 293.551C42.3815 283.533 44.6427 277.138 44.9753 267.031C45.4521 256.013 39.6383 254.375 38.6017 258.733C36.0876 269.576 35.0893 276.762 33.0475 287.801C31.6634 295.397 33.0169 297.096 33.6931 312.341C33.7933 313.956 36.5772 317.252 37.6068 318.147C46.7206 326.51 57.7442 331.412 62.6546 335.689C67.4279 335.624 72.2794 335.559 77.0527 335.494C76.7865 333.174 76.5203 330.854 76.254 328.534Z" fill="white"/>
<path fill-rule="evenodd" clip-rule="evenodd" d="M31.4944 288.732C29.0029 283.916 25.254 278.714 20.9942 276.246C16.7044 271.556 12.3444 267.473 7.80044 267.131C4.66768 266.971 3.22472 270.224 6.08965 273.721C10.4674 279.116 15.3091 284.102 19.1473 290.111C22.5846 295.419 24.3978 302.163 27.8351 307.471C29.0335 309.273 31.0763 309.851 32.6577 311.042C32.3244 303.773 31.4212 300.653 31.1152 295.404C31.0069 293.183 31.368 290.956 31.4944 288.732Z" fill="white"/>
<path fill-rule="evenodd" clip-rule="evenodd" d="M32.1831 281.853C30.5729 278.541 29.1178 275.126 27.3539 272.018C25.6696 269.01 22.4052 264.912 21.8397 263.607C21.0298 261.597 23.6657 259.743 27.5136 260.701C29.1623 261.083 32.7137 263.257 35.0473 267.974C34.0244 273.342 33.1428 277.597 32.1831 281.853Z" fill="white"/>
<path fill-rule="evenodd" clip-rule="evenodd" d="M33.5766 194.045C27.0818 194.133 21.6676 187.337 21.5526 178.852C21.439 170.469 26.667 163.529 33.1618 163.441C39.7349 163.352 45.149 170.148 45.2626 178.531C45.3776 187.015 40.1497 193.956 33.5766 194.045Z" fill="#FF4842"/>
<path fill-rule="evenodd" clip-rule="evenodd" d="M555.037 406.197L545.847 409.554L518.86 387.493L555.037 406.197Z" fill="white"/>
<path fill-rule="evenodd" clip-rule="evenodd" d="M391.105 339.42C385.798 340.503 382.869 343.876 381.914 348.435C381.765 349.043 381.775 349.75 381.863 350.456L401.117 344.74L401.472 347.867L382.685 353.375C383.817 356.087 385.963 358.482 387.61 358.763C387.061 358.669 385.808 358.585 385.182 358.594C382.505 357.418 380.59 354.716 380.002 351.795L360.3 335.999L359.002 332.582L379.814 349.474C379.809 349.07 379.802 348.565 379.953 348.158C380.677 343.805 385.475 339.8 388.678 339.352C389.462 339.443 390.322 339.431 391.105 339.42Z" fill="white"/>
<path fill-rule="evenodd" clip-rule="evenodd" d="M362.521 315.057L349.113 318.976L348.069 317.071L361.945 312.943L362.348 313.847L362.521 315.057ZM366.657 325.709L359.96 322.466L353.083 323.166L352.439 321.861L361.273 321.135L363.748 318.98L363.722 322.819L366.657 325.709ZM342.512 328.562C338.062 329.431 328.973 328.645 322.058 326.617L340.464 321.821L339.493 319.511L318.205 325.255C317.89 325.158 317.653 324.959 317.338 324.862C303.394 318.081 286.491 306.692 282.95 299.568C282.963 300.477 282.974 301.285 282.986 302.194C286.12 308.213 302.953 320.208 317.286 326.782C325.32 330.512 336.913 331.265 343.558 330.669C343.235 329.967 342.834 329.265 342.512 328.562Z" fill="white"/>
</g>
<defs>
<filter id="filter0_d_114_259" x="0.545898" y="4.76636" width="636.389" height="734.32" filterUnits="userSpaceOnUse" color-interpolation-filters="sRGB">
<feFlood flood-opacity="0" result="BackgroundImageFix"/>
<feColorMatrix in="SourceAlpha" type="matrix" values="0 0 0 0 0 0 0 0 0 0 0 0 0 0 0 0 0 0 127 0" result="hardAlpha"/>
<feOffset dy="4"/>
<feGaussianBlur stdDeviation="2"/>
<feComposite in2="hardAlpha" operator="out"/>
<feColorMatrix type="matrix" values="0 0 0 0 0 0 0 0 0 0 0 0 0 0 0 0 0 0 0.25 0"/>
<feBlend mode="normal" in2="BackgroundImageFix" result="effect1_dropShadow_114_259"/>
<feBlend mode="normal" in="SourceGraphic" in2="effect1_dropShadow_114_259" result="shape"/>
</filter>
</defs>
</svg>
