<svg width="633" height="731" viewBox="0 0 633 731" fill="none" xmlns="http://www.w3.org/2000/svg">
<path fill-rule="evenodd" clip-rule="evenodd" d="M428.273 89.281C436.519 92.9286 441.316 91.2762 445.801 89.5186C441.748 88.2514 437.501 89.8102 434.409 86.9397C439.412 87.4116 443.674 84.7417 447.613 82.8757C446.131 82.4515 443.857 82.8248 442.075 81.4873C448.421 80.9672 451.555 74.9483 455.409 73.5862C450.698 68.8753 446.592 71.5473 441.481 61.7798C438.104 62.6433 435.678 62.6104 433.734 61.6748C436.086 61.4036 438.201 61.2303 439.553 59.6322C435.56 59.7801 431.511 58.2099 427.346 59.4668C430.677 56.2792 435.515 57.355 438.447 54.6671C424.464 35.3843 406.485 16.4514 384.994 8.28038C374.016 4.09067 356.639 4.25924 347.541 5.65128C344.016 11.6649 345.398 19.3614 348.356 26.372C342.268 19.3189 343.518 13.7796 343.755 7.82244C341.649 13.0471 340.625 19.2966 342.339 25.6843C335.164 23.7686 328.755 28.935 322.54 37.0336C307.323 56.8299 308.538 76.9499 298.139 93.4777C313.492 98.3328 335.883 86.2105 343.553 86.2134C330.981 89.8819 315.881 101.093 300.363 96.8416C299.099 103.492 296.257 111.131 294.992 117.782C299.985 118.96 306.266 123.289 311.499 124.067C329.386 126.734 332.782 107.181 346.964 100.201C354.448 96.5644 362.083 99.1934 365.843 116.216C366.877 120.776 366.414 126.124 366.193 130.869C369.181 129.799 370.956 120.124 382.551 113.513C386.179 111.441 389.636 110.477 392.978 106.381C392.333 102.028 397.319 97.9536 395.413 94.1899C389.605 89.6662 378.903 88.1069 369.373 86.7654C380.099 86.5067 389.55 87.9481 396.537 92.0837C397.84 82.6052 399.628 71.921 396.8 61.1743C387.813 48.6267 374.263 43.594 361.033 38.0604C375.141 42.2926 386.819 46.8958 398.594 55.8444C400.048 58.2886 402.332 62.9666 403.304 66.3136C410.523 70.7554 418.556 78.643 428.273 89.281Z" fill="white"/>
<path fill-rule="evenodd" clip-rule="evenodd" d="M400.471 67.4873C409.949 72.6669 419.157 80.4695 426.086 88.9483C425.504 102.983 423.605 116.09 419.759 128.463C418.285 133.293 415.415 137.093 413.631 141.715C413.061 143.324 412.802 145.139 412.777 146.957C412.679 154.229 413.128 161.509 413.186 168.783C413.233 171.108 412.726 173.828 410.995 174.512C408.085 175.584 402.922 175.413 398.924 175.864C400.092 176.284 401.184 176.602 402.353 176.92C401.435 181.151 401.313 184.382 401.586 187.315C400.553 188.514 399.283 189.81 396.455 190.58C394.256 191.156 391.907 191.225 389.779 192.308C389.227 192.603 389.057 193.611 388.657 194.212C390.382 194.033 392.107 193.753 393.755 193.473C394.915 194.499 394.573 196.616 393.854 197.717C392.812 199.521 390.77 199.999 389.189 201.19C386.25 204.382 386.649 209.54 385.031 213.458C384.142 215.567 383.476 218.488 381.743 219.273C375.996 221.821 365.754 220.976 363.769 217.312C357.353 205.607 352.547 196.45 348.914 181.55C349.948 191.869 354.801 203.35 359.969 214.735C349.5 207.622 338.046 209.589 325.209 203.959C326.885 207.316 330.629 208.276 333.429 209.526C325.241 213.153 318.864 221.653 313.052 228.949C310.948 216.697 307.04 204.824 300.526 194.533C293.401 183.223 287.736 168.093 284.562 148.25C283.861 142.179 283.083 136.107 282.304 130.035C288.193 128.6 293.466 126.449 297.151 120.235C302.108 124.04 306.942 125.419 312.408 126.301C321.079 127.53 329.734 118.353 339.023 108.68C341.881 105.688 344.888 103.203 347.648 101.725C345.265 104.32 341.833 109.223 340.438 113.952C339.041 118.884 339.414 125.96 340.598 131.027C341.78 136.196 344.437 136.535 347.091 142.834C347.771 144.561 350.444 143.688 351.882 141.586C351.128 145.212 350.432 150.355 350.377 154.395C351.164 148.344 352.339 142.501 354.207 137.475C351.897 140.475 348.568 143.561 347.513 140.516C345.098 133.917 342.896 134.695 341.785 130.033C340.601 125.067 340.842 118.807 342.004 113.873C343.005 109.34 345.727 104.831 347.726 101.726C350.563 100.249 353.229 99.8815 355.405 101.022C360.301 103.614 362.708 110.819 366.32 115.717C366.597 118.348 366.813 119.765 367.011 122.495C366.423 125.417 365.976 129.553 364.846 132.063C363.793 134.675 367.978 132.005 369.813 129.403C373.005 124.9 376.031 121.001 379.915 117.417C384.035 113.735 389.475 110.778 393.975 107.909C393.659 102.349 397.685 99.7769 398.793 93.1244C400.082 84.6559 400.513 75.9738 400.471 67.4873ZM397.839 140.39C399.204 143.641 400.44 144.87 402.216 146.612C402.988 147.43 399.587 150.011 399.166 152.228C398.249 156.357 399.505 161.83 398.672 165.556C399.224 165.26 399.957 163.149 399.897 161.835C399.784 158.601 398.968 155.256 399.715 152.134C400.215 149.918 403.844 147.745 403.154 146.726C401.158 143.87 400.563 141.538 397.839 140.39ZM397.099 137.248C397.955 137.664 398.336 138.376 399.352 138.491C402.711 138.941 405.693 138.375 408.263 139.319C408.509 138.514 408.602 137.404 408.463 136.089C408.145 136.489 408.052 137.599 407.582 137.592C403.204 137.23 400.063 137.996 397.099 137.248Z" fill="white"/>
<path fill-rule="evenodd" clip-rule="evenodd" d="M295.454 106.776C294.687 111.412 293.618 115.237 292.171 118.046C292.783 119.064 293.397 119.982 294.009 121C290.127 124.484 285.961 125.841 282.505 126.704C282.818 120.95 285.411 114.418 290.08 116.401C280.937 109.61 280.412 125.261 280.881 131.026C282.108 144.478 283.312 159.547 287.674 172.638C292.263 186.339 300.799 197.466 306.098 210.772C308.444 216.663 309.055 223.541 310.535 229.824C309.75 235.774 308.887 241.722 308.18 247.673C307.822 251.002 308.728 253.439 310.432 254.775C311.323 246.806 312.058 238.735 314.425 231.594C321.198 222.695 329.131 214.822 337.016 210.483C337.641 210.593 338.265 210.702 338.89 210.812C337.232 217.659 336.641 226.642 337.182 232.913C330.194 228.777 319.227 229.538 316.661 234.049C323.187 231.814 330.454 232.721 339.087 236.676C338.335 228.685 339 220.006 341.78 211.255C343.342 211.478 344.981 211.804 346.777 212.131C353.177 213.43 357.136 215.807 360.784 218.079C363.251 220.84 365.564 223.397 369.391 224.055C374.075 224.927 380.888 224.615 384.693 221.03C387.785 218.142 388.447 209.665 390.619 205.351C393.55 208.522 395.177 209.756 397.234 213.926C398.074 215.453 397.788 219.187 399.021 220.618C405.345 227.573 412.241 232.718 418.324 240.074C420.79 242.936 423.317 247.011 424.675 250.767C420.972 246.777 414.869 246.695 408.591 247.923C403.255 248.962 396.958 251.604 393.64 253.882C388.231 260.275 382.821 266.768 377.412 273.16C329.185 274.325 282.066 274.595 233.762 275.658C224.475 279.472 209.738 286.95 203.309 287.772C206.939 279.841 213.252 270.228 217.472 264.931C222.809 258.033 225.549 252.21 227.596 245.571C227.775 232.339 228.248 220.526 228.427 207.294C218.632 190.897 212.454 161.618 202.214 154.912C204.184 148.17 210.482 145.427 214.807 143.97C232.265 137.843 247.338 140.168 265.908 132.843C266.476 148.712 266.025 164.667 267.689 180.449C269.143 194.41 272.638 207.995 275.112 221.767C287.428 219.712 299.098 219.062 307.38 225.841C301.555 216.771 289.738 216.712 276.243 219.156C274.315 205.492 271.602 192.019 270.538 178.164C269.192 161.982 268.631 145.609 269.087 129.25C269.245 123.392 271.362 117.36 275.156 114.583C281.559 109.921 288.701 108.402 295.454 106.776Z" fill="#FF4842"/>
<path fill-rule="evenodd" clip-rule="evenodd" d="M392.564 252.454C402.531 250.468 414.055 249.007 421.075 250.82C423.726 251.563 424.019 252.981 426.506 254.328C438.551 260.654 446.846 266.525 455.681 272.908C456.767 273.63 457.057 275.351 457.188 277.272C453.498 278.131 446.662 280.059 438.607 285.405C424.55 294.711 416.718 306.626 406.859 318.009C423.521 301.263 440.454 281.894 460.29 279.335C465.09 283.239 469.969 287.043 475.573 289.341C464.994 290.309 453.752 293.995 442.53 302.026C423.562 315.609 416.433 327.635 408.371 339.245C405.196 336.777 402.009 335.118 398.819 333.761C397.486 333.945 396.222 334.837 394.589 334.007C382.312 327.476 372.249 325.016 361.718 322.449C363.301 321.157 364.899 318.754 366.482 317.462C371.179 317.324 375.925 319.409 380.484 317.955C388.028 315.734 394.598 310.267 402.301 307.845C392.438 307.914 381.724 318.881 369.101 314.77C372.29 310.469 375.787 306.476 378.591 301.766C382.191 295.955 381.395 291.196 381.143 286.647C380.279 292.697 378.166 298.426 374.189 303.12C368.065 310.311 361.605 319.215 355.175 325.896C332.234 349.729 309.704 366.295 287.737 393.273C286.144 395.272 284.932 398.084 284.504 400.806C299.621 382.625 315.008 367.579 332.585 352.664C323.658 364.565 317.68 378.324 308.609 389.313C292.376 408.995 291.505 421.308 278.334 428.706C267.609 434.723 255.696 435.976 244.297 439.66C253.209 423.112 262.042 406.563 270.954 390.015C274.14 385.916 278.018 382.736 280.515 377.517C282.448 373.502 287.365 368.72 290.561 363.914C292 361.711 294.515 349.319 294.147 341.839C294.65 339.421 295.199 339.327 296.249 336.917C308.92 337.493 338.773 323.451 349.391 308.037C350.427 306.637 351.462 305.338 351.256 303.214L350.997 299.27C349.02 289.242 324.436 284.06 311.091 287.011C293.665 290.816 274.847 304.906 271.204 313.847C271.098 310.108 268.54 308.255 267.115 309.448C260.18 312.991 255.103 312.215 251.692 315.603C246.378 320.785 240.456 324.644 233.603 327.885C228.876 330.144 226.092 333.441 218.534 342.531C208.107 343.804 198.805 342.971 186.866 340.385C184.915 339.954 181.3 341.016 179.133 345.028C175.536 344.777 164.755 343.318 161.882 341.662C166.64 337.08 175.813 318.515 179.348 317.553C185.869 315.722 195.853 300.905 199.078 293.979C214.196 287.213 223.876 283.303 238.57 273.198C282.653 271.775 326.812 270.454 370.972 269.133C378.091 263.572 385.366 258.014 392.564 252.454Z" fill="#FF4842"/>
<path fill-rule="evenodd" clip-rule="evenodd" d="M199.592 157.806C205.7 163.344 210.148 170.072 213.235 179.105C217.605 191.59 224.285 201.076 230.95 211.773C230.386 224.494 229.9 237.217 229.338 249.837C222.675 256.414 216.396 263.502 210.347 270.895C202.866 280.088 190.694 300.431 183.44 310.132C181.686 312.532 178.79 312.493 176.918 312.064C175.492 313.358 174.129 315.764 171.798 320.278C170.761 321.678 168.34 321.343 167.016 320.82C154.098 315.391 141.102 309.861 130.246 296.682C130.321 291.127 130.435 282.743 131.292 277.199C127.499 279.875 125.624 285.406 122.993 289.007C116.344 282.956 111.155 273.087 108.838 265.075C112.036 260.067 113.956 257.062 117.154 252.054C116.332 249.215 116.916 246.495 118.444 243.485C129.854 221.617 147.569 190.742 158.75 179.983C164.172 178.44 170.524 177.516 175.795 181.224C183.471 186.581 189.075 194.638 194.652 204.715C189.867 193.942 185.449 184.992 176.918 179.219C173.584 176.951 166.862 176.254 163.099 176.708C173.737 165.639 185.739 157.82 199.592 157.806Z" fill="#FF4842"/>
<path fill-rule="evenodd" clip-rule="evenodd" d="M111.084 278.441C114.458 283.639 117.909 288.837 122.852 293.653C124.456 290.846 126.372 288.043 128.365 285.342C127.368 289.673 127.074 294.013 127.328 298.36C140.998 311.881 154.826 319.443 168.691 324.379C161.704 337.518 159.211 336.676 150.44 342.82C142.795 340.999 134.647 341.596 126.705 344.317C121.673 346.067 116.419 352.563 111.46 354.617C117.115 353.178 122.042 347.689 126.91 346.542C135.074 344.734 141.82 343.613 150.017 345.138C159.385 346.882 168.769 347.514 178.227 348.349C172.597 365.346 172.601 382.318 178.081 399.566C160.92 406.91 143.117 415.357 125.368 419.864C112.725 423.027 101.672 418.533 92.9818 412.96L146.549 364.286L122.589 365.072L89.8518 384.025L95.7164 343.998L119.088 299.966L96.7054 317.241C102.023 300.24 102.888 294.19 111.084 278.441Z" fill="white"/>
<path fill-rule="evenodd" clip-rule="evenodd" d="M180.726 348.787C181.865 345.57 184.168 343.075 185.732 343.198C194.141 346.443 202.195 346.957 210.739 345.961C212.622 345.684 213.854 347.115 214.362 350.051C213.249 351.349 212.457 352.046 210.328 353.229C208.134 353.402 204.189 367.289 205.529 378.117C206.657 387.325 210.935 395.061 215.037 398.45C216.601 398.572 218.013 398.289 219.499 398.41C218.906 401.735 217.054 405.549 215.173 405.726C204.673 406.695 193.863 407.356 186.142 405.332C183.88 404.796 181.404 402.641 180.574 400.408C174.39 383.15 174.938 365.782 180.726 348.787Z" fill="#FF4842"/>
<path fill-rule="evenodd" clip-rule="evenodd" d="M210.609 355.557C208.2 360.07 206.428 369.542 207.274 376.423C208.193 383.709 211.058 391.729 215.616 396.135C228.073 395.192 240.907 395.265 253.762 393.823C259.013 393.288 265.957 389.139 269.054 385.847C265.16 378.622 260.781 372.602 259.737 362.991C261.721 372.514 266.105 378.231 270.322 384.652C274.279 381.473 275.704 380.28 277.878 375.764C279.569 372.251 283.843 368.773 287.424 364.377C289.015 362.479 291.723 353.221 292.517 346.666C292.771 345.255 292.562 343.332 291.624 343.219C290.162 347.139 287.888 353.27 286.223 354.864C282.259 358.548 278.267 364.353 274.998 368.855C277.801 364.145 281.175 357.725 284.988 353.534C286.656 351.738 291.087 342.403 293.591 336.679C291.87 336.656 289.61 335.918 287.967 335.895C285.497 339.095 284.848 340.803 282.384 343.599C279.998 346.395 272.909 355.492 270.122 358.99C273.019 353.17 278.916 345.37 282.43 340.164C285.629 335.157 288.113 330.846 291.198 322.705C294.038 315.268 297.582 307.84 291.929 309.178C287.768 310.132 282.181 318.138 278.866 325.973C271.942 334.466 268.832 338.667 263.233 347.582C258.42 350.446 252.168 355.514 247.277 358.377C238.87 360.789 232.867 353.333 233.102 347.477C234.034 342.236 238.609 339.672 243.96 337.522C249.005 334.862 254.128 332.204 259.173 329.545C263.114 327.477 265.341 324.88 268.307 319.667C269.912 316.759 268.812 311.289 266.693 311.766C266.536 311.764 260.544 315.016 255.117 316.963C251.971 318.133 249.728 321.941 245.467 324.51C240.967 327.379 238.137 328.25 233.564 330.713C229.781 332.682 222.623 341.071 218.139 348.587C216.137 351.894 213.451 353.777 210.609 355.557Z" fill="white"/>
<path fill-rule="evenodd" clip-rule="evenodd" d="M272.469 387.914C269.548 389.794 266.046 394.09 261.097 395.438C250.337 398.222 233.745 398.199 222.86 398.657C221.384 403.587 219.528 407.704 216.85 408.981C209.871 409.998 198.916 409.849 192.036 409.251C185.469 408.758 180.704 408.087 179.27 404.128C170.454 407.847 161.64 411.466 152.902 415.186C144.403 424.365 135.903 433.645 127.482 442.825L147.156 446.425L174.818 426.596C184 424.7 193.105 422.803 202.288 420.907C171.686 444.03 141.161 467.256 110.559 490.379C141.186 482.713 171.813 475.046 202.44 467.379C211.05 455.777 221.824 446.225 244.297 439.66C252.045 433.906 260.745 427.154 268.493 421.4C269.421 410.704 271.541 398.61 272.469 387.914Z" fill="#FF4842"/>
<path fill-rule="evenodd" clip-rule="evenodd" d="M416.119 333.49C434.85 308.488 451.05 296.989 471.833 293.836C475.644 295.605 479.64 301.013 484.348 300.168C478.662 303.93 474.789 306.706 472.558 309.605C469.925 313.308 465.91 315.072 461.201 316.018C464.633 316.873 468.053 318.636 473.459 312.446C485.143 299.27 494.75 300.713 506.46 302.892C511.769 303.873 517.653 308.6 522.96 309.682C532.872 311.736 544.679 312.502 554.399 311.422C552.807 313.421 551.21 315.723 550.002 318.232C542.741 322.679 531.826 325.36 523.6 325.956C532.43 326.985 543.669 323.5 548.624 321.749C547.881 324.567 547.682 327.696 548.579 330.84C549.762 324.391 550.635 317.735 555.786 313.057C558.163 310.867 562.181 308.901 566.979 307.147C563.844 307.509 560.708 307.871 557.872 309.246C559.738 304.423 563.787 300.133 568.23 295.749C569.022 300.811 568.876 305.759 568.573 310.806C566.573 314.011 562.622 316.786 559.363 320.48C556.98 323.074 556.862 326.003 558.086 328.141C562.357 330.623 566.626 333.206 570.897 335.689C567.48 339.481 560.938 342.929 556.245 342.663C552.961 342.416 551.329 341.586 548.975 336.301C548.222 339.827 549.988 342.376 552.934 344.436C550.397 346.827 547.723 347.801 544.431 348.16C542.941 348.342 541.853 347.822 540.782 345.989C539.825 347.289 541.352 350.139 542.048 350.754C527.66 355.611 512.46 362.577 497.783 365.611C488.366 367.504 478.81 368.081 471.883 359.401C468.266 354.907 464.935 346.578 461.817 345.626C465.202 350.016 467.559 355.099 468.977 360.169C462.941 355.137 456.785 353.135 450.698 351.84C437.742 349.139 427.215 340.51 416.119 333.49Z" fill="white"/>
<path fill-rule="evenodd" clip-rule="evenodd" d="M205.404 462.368C214.716 456.736 224.136 448.883 234.044 445.38C247.255 440.811 257.738 441.155 277.178 433.135C271.518 440.736 266.287 445.615 259.239 451.682C257.418 453.173 258.857 456.728 257.598 457.216C250.357 460.25 245.816 460.39 238.225 460.287C243.376 461.367 248.829 463.26 257.944 460.555C259.673 460.073 260.271 462.102 260.654 462.713C258.41 466.622 254.52 470.712 250.32 474.493C242.476 481.56 233.438 484.367 225.25 487.893C232.476 486.071 239.603 485.663 251.38 477.134C257.072 472.969 261.137 467.568 263.389 463.053C264.63 463.878 266.177 465.212 266.766 467.948C267.351 470.986 266.93 473.203 267.665 476.749C268.171 479.787 271.741 482.057 271.531 485.994C271.046 487.099 269.685 489.404 267.327 490.079C227.331 501.862 202.132 524.756 177.424 551.899L133.814 558.885L188.397 516.084L168.584 516.927L117.949 545.638L190.606 480.15L151.609 493.259L205.404 462.368Z" fill="#FF4842"/>
<path fill-rule="evenodd" clip-rule="evenodd" d="M213.504 517.333C232.361 506.173 251.355 496.429 271.218 491.849C298.949 507.278 320.771 525.656 338.888 546.006C327.309 551.405 315.697 559.329 304.138 569.073C318.03 560.472 329.93 554.37 339.841 550.767C343.337 552.632 346.281 554.895 348.593 557.553C324.43 567.53 301.024 590.953 277.938 613.875C288.429 607.855 299.657 599.42 310.108 596.329C296.143 604.626 279.35 625.209 261.813 648.711L269.483 619.822L234.926 628.749L301.697 552.876L264.724 555.204L210.66 571.241C207.438 572.207 271.291 526.905 271.291 526.905L237.805 531.806L196.317 555.489C207.042 543.714 217.844 532.04 228.57 520.265C223.574 519.288 218.578 518.311 213.504 517.333Z" fill="#FF4842"/>
<path fill-rule="evenodd" clip-rule="evenodd" d="M346.797 568.742C336.243 573.65 325.654 581.083 315.04 590.435C321.365 591.531 327.768 592.629 334.092 593.724C346.525 606.117 358.959 618.408 371.315 630.698C375.047 644.084 355.931 639.683 331.517 668.245C350.72 660.423 369.87 650.681 388.969 650.536C391.985 653.204 393.761 666.563 391.034 671.375C384.603 683.915 381.126 692.152 374.694 704.794C383.965 690.574 391.151 680.064 401 669.489C400.333 655.135 397.085 646.505 393.919 637.57C391.586 630.67 390.498 624.291 386.663 618.581C374.541 600.536 360.111 585.389 346.797 568.742Z" fill="white"/>
<path fill-rule="evenodd" clip-rule="evenodd" d="M121.299 662.264L231.679 591.023L206.796 590.686L121.299 662.264Z" fill="white"/>
<path fill-rule="evenodd" clip-rule="evenodd" d="M183.877 630.179L201.479 619.203L248.422 660.854L183.877 630.179Z" fill="white"/>
<path fill-rule="evenodd" clip-rule="evenodd" d="M100.777 461.455L94.6519 480.263L118.417 459.169L100.777 461.455Z" fill="white"/>
<path fill-rule="evenodd" clip-rule="evenodd" d="M83.4342 516.783L52.3003 561.821L72.1674 551.18L84.1336 534.471L139.354 502.387L91.1908 521.939L83.4342 516.783Z" fill="white"/>
<path fill-rule="evenodd" clip-rule="evenodd" d="M17.5234 644.694L74.1305 614.245L82.6088 618.098L129.28 587.413L61.5279 649.027L43.0605 648.777L0.617188 679.418L42.4565 641.395L17.5234 644.694Z" fill="white"/>
<path fill-rule="evenodd" clip-rule="evenodd" d="M323.687 680.059L303.044 684.426L306.491 689.928L268.98 726.192L323.687 680.059Z" fill="white"/>
<path fill-rule="evenodd" clip-rule="evenodd" d="M557.298 328.534C557.343 325.201 558.695 323.603 560.127 321.905C562.993 318.307 566.549 315.83 569.72 312.842C571.868 310.244 573.024 305.815 573.057 303.391C572.329 305.099 571.504 308.219 569.761 309.812C570.657 301.439 568.987 291.819 570.165 285.774C570.842 282.045 573.842 280.065 574.595 282.298C576.923 289.502 577.286 297.387 579.063 304.887C579.954 308.435 579.346 312.871 577.161 318.196C580.012 315.709 581.829 308.662 581.734 304.115C581.45 296.231 578.055 286.891 576.389 276.968C575.444 271.601 578.179 266.183 580.264 268.232C583.511 276.964 588.176 285.008 590.005 294.428C591.252 300.607 589.955 303.923 590.182 310.291C590.245 311.403 590.857 312.421 591.394 313.237C592.042 305.871 593.013 297.701 592.443 293.551C591.17 283.533 588.909 277.138 588.576 267.031C588.1 256.013 593.913 254.375 594.95 258.733C597.464 269.576 598.462 276.762 600.504 287.801C601.888 295.397 600.535 297.096 599.859 312.341C599.758 313.956 596.975 317.252 595.945 318.147C586.831 326.51 575.808 331.412 570.897 335.689C566.124 335.624 561.272 335.559 556.499 335.494C556.765 333.174 557.031 330.854 557.298 328.534Z" fill="white"/>
<path fill-rule="evenodd" clip-rule="evenodd" d="M602.057 288.732C604.549 283.916 608.298 278.714 612.558 276.246C616.847 271.556 621.207 267.473 625.751 267.131C628.884 266.971 630.327 270.224 627.462 273.721C623.084 279.116 618.243 284.102 614.405 290.111C610.967 295.419 609.154 302.163 605.717 307.471C604.518 309.273 602.475 309.851 600.894 311.042C601.227 303.773 602.131 300.653 602.437 295.404C602.545 293.183 602.184 290.956 602.057 288.732Z" fill="white"/>
<path fill-rule="evenodd" clip-rule="evenodd" d="M601.369 281.853C602.979 278.541 604.434 275.126 606.198 272.018C607.882 269.01 611.147 264.912 611.712 263.607C612.522 261.597 609.886 259.743 606.038 260.701C604.389 261.083 600.838 263.257 598.504 267.974C599.527 273.342 600.409 277.597 601.369 281.853Z" fill="white"/>
<path fill-rule="evenodd" clip-rule="evenodd" d="M599.975 194.045C606.47 194.133 611.884 187.337 611.999 178.852C612.113 170.469 606.885 163.529 600.39 163.441C593.817 163.352 588.403 170.148 588.289 178.531C588.174 187.015 593.402 193.956 599.975 194.045Z" fill="#FF4842"/>
<path fill-rule="evenodd" clip-rule="evenodd" d="M78.5145 406.197L87.7044 409.554L114.692 387.493L78.5145 406.197Z" fill="white"/>
<path fill-rule="evenodd" clip-rule="evenodd" d="M242.447 339.42C247.754 340.503 250.683 343.876 251.638 348.435C251.787 349.043 251.777 349.75 251.689 350.456L232.435 344.74L232.08 347.867L250.867 353.375C249.734 356.087 247.589 358.482 245.941 358.763C246.491 358.669 247.744 358.585 248.37 358.594C251.047 357.418 252.962 354.716 253.549 351.795L273.251 335.999L274.55 332.582L253.737 349.474C253.743 349.07 253.75 348.565 253.599 348.158C252.875 343.805 248.077 339.8 244.874 339.352C244.09 339.443 243.229 339.431 242.447 339.42Z" fill="white"/>
<path fill-rule="evenodd" clip-rule="evenodd" d="M271.031 315.057L284.439 318.976L285.482 317.071L271.607 312.943L271.204 313.847L271.031 315.057ZM266.895 325.709L273.591 322.466L280.469 323.166L281.113 321.861L272.279 321.135L269.804 318.98L269.83 322.819L266.895 325.709ZM291.04 328.562C295.489 329.431 304.579 328.645 311.494 326.617L293.088 321.821L294.058 319.511L315.347 325.255C315.661 325.158 315.899 324.959 316.213 324.862C330.158 318.081 347.061 306.692 350.601 299.568C350.589 300.477 350.578 301.285 350.566 302.194C347.432 308.213 330.599 320.208 316.266 326.782C308.232 330.512 296.638 331.265 289.994 330.669C290.317 329.967 290.717 329.265 291.04 328.562Z" fill="white"/>
</svg>
